<svg xmlns="http://www.w3.org/2000/svg" viewBox="0 0 500 500"><g id="freepik--background-complete--inject-202"><path d="M106.12,275.13s-9.08,2.4-1.44,22,13.3,29.5,13.3,29.5,1.25,4.5-2.46,4.8-11.61-1.78-13.68,2.52.77,9.15,7.2,13.66,20.14,14.92,21.38,15.86,2.31,3.08-.19,3.69-20.73.68-20.18,9.33,20.52,18.28,22.68,19.38,2.6,2.1,2.3,3.31-6.44.67-11.63.9-11.16,1.41-10.42,6.37,12,16.38,41.5,22.29l13.86,1.85,8.75-11c17.28-24.65,17.56-40.67,14.67-44.77s-8-.84-11.95,2.57-8,8-9,7.38-1.44-1.71-.63-4,8.63-23,3.06-29.67-18.82,5.89-21.05,7.16-2.92-1-2.68-2.54,3-18.53,4.54-26.23.41-13.11-4.22-14.86c-4.46-1.68-8.74,5.28-11.64,7.62s-5.09-1.78-5.09-1.78-2.73-11.07-10.72-30.53-16.41-14.78-16.41-14.78" style="fill:#ebebeb"></path><path d="M168.73,433.93C162.92,419.62,153,394,144.39,372.05s-16.43-41.8-22.17-56.14c-2.88-7.15-5.2-13-6.82-17l-1.85-4.62-.47-1.2a4,4,0,0,1-.15-.42s.07.13.19.4.29.68.51,1.19l1.93,4.59c1.66,4,4,9.77,6.94,16.93,5.81,14.31,13.68,34.15,22.3,56.1s18.47,47.58,24.22,61.92" style="fill:#e0e0e0"></path><path d="M112.77,337.31a4.58,4.58,0,0,1,.94.37c.6.26,1.45.66,2.49,1.16,2.09,1,4.94,2.49,8.06,4.18l8,4.34,2.42,1.29a4.65,4.65,0,0,1,.87.52,6.13,6.13,0,0,1-.95-.36c-.59-.26-1.44-.67-2.48-1.18-2.08-1-4.91-2.55-8-4.23l-8-4.28-2.42-1.29A3.89,3.89,0,0,1,112.77,337.31Z" style="fill:#e0e0e0"></path><path d="M136.55,348.37c-.11-.05,2.67-6.06,6.21-13.42s6.49-13.29,6.6-13.24-2.67,6.07-6.21,13.43S136.66,348.43,136.55,348.37Z" style="fill:#e0e0e0"></path><path d="M148.26,382.67a5,5,0,0,1,.65-.8l1.88-2.09c1.58-1.76,3.75-4.21,6-7s4.3-5.37,5.73-7.26c.68-.88,1.24-1.63,1.7-2.23a4.45,4.45,0,0,1,.66-.79,4.24,4.24,0,0,1-.52.89c-.37.55-.9,1.35-1.59,2.32-1.37,1.93-3.33,4.56-5.64,7.35s-4.52,5.22-6.16,6.93c-.82.85-1.49,1.54-2,2A4.63,4.63,0,0,1,148.26,382.67Z" style="fill:#e0e0e0"></path><path d="M124.55,377.4a3.92,3.92,0,0,1,1,.11l2.55.46c2.15.41,5.12,1,8.39,1.69s6.22,1.33,8.36,1.81l2.52.6a4,4,0,0,1,.92.28,3.89,3.89,0,0,1-1-.11l-2.55-.47c-2.16-.41-5.12-1-8.39-1.68s-6.23-1.33-8.36-1.82l-2.53-.59A3.79,3.79,0,0,1,124.55,377.4Z" style="fill:#e0e0e0"></path><path d="M131,409a6.67,6.67,0,0,1,1.22.16l3.27.58c2.76.51,6.57,1.24,10.76,2.07s8,1.62,10.75,2.21l3.24.71a6.43,6.43,0,0,1,1.18.32,6,6,0,0,1-1.21-.15l-3.27-.58c-2.76-.51-6.57-1.24-10.77-2.08s-8-1.62-10.74-2.2l-3.25-.72A7.15,7.15,0,0,1,131,409Z" style="fill:#e0e0e0"></path><path d="M160.78,414.69a7.06,7.06,0,0,1,.79-1l2.28-2.73c1.93-2.31,4.57-5.51,7.39-9.13s5.29-6.94,7.06-9.37l2.1-2.88a8.16,8.16,0,0,1,.81-1,6.57,6.57,0,0,1-.67,1.12c-.46.71-1.13,1.72-2,3-1.71,2.47-4.14,5.84-7,9.46s-5.51,6.79-7.49,9.06c-1,1.12-1.81,2-2.39,2.64A7.68,7.68,0,0,1,160.78,414.69Z" style="fill:#e0e0e0"></path><rect x="337.83" y="304.44" width="97.12" height="149.35" rx="7.54" transform="translate(-140.38 254.44) rotate(-31.14)" style="fill:#ebebeb"></rect><path d="M435.85,410.77a10.31,10.31,0,1,1,3.49-14.15A10.3,10.3,0,0,1,435.85,410.77Z" style="fill:#fff"></path><path d="M437,423.39a10.46,10.46,0,0,1-2.6-.32,10.72,10.72,0,1,1,2.6.32Zm0-20.62a9.81,9.81,0,0,0-8.38,14.88A9.83,9.83,0,0,0,442,421h0a9.81,9.81,0,0,0-2.73-17.92A9.47,9.47,0,0,0,436.93,402.77Z" style="fill:#fff"></path><path d="M343,333.62l-7.1,4.28-.44-.72,6.45-3.9-1-1.67.65-.39Z" style="fill:#fff"></path><path d="M341,344.81l-.65.39-3-5,.51-.32,4.67,1.21a2.73,2.73,0,0,0,2.33-.11c.82-.5,1-1.38.33-2.46a2.85,2.85,0,0,0-2-1.46l.13-.79a3.73,3.73,0,0,1,2.53,1.9c.87,1.44.69,2.8-.49,3.51a3.42,3.42,0,0,1-2.93.18l-3.83-1Z" style="fill:#fff"></path><path d="M346.73,351.55l-.86-1.42L344,351.25l-.44-.73,1.86-1.12-2.42-4,.53-.32,7,.92.49.81-6.77-.86,1.86,3.08,1.64-1,.43.71-1.64,1,.86,1.42Z" style="fill:#fff"></path><path d="M353.3,362.42l-.86-1.42-1.86,1.13-.44-.73,1.86-1.13-2.42-4,.53-.32,7,.92.49.81-6.77-.86,1.86,3.08,1.65-1,.42.71-1.64,1L354,362Z" style="fill:#fff"></path><path d="M357.27,368.49c-1.2.73-2.66.45-3.7-1.28a4.3,4.3,0,0,1-.63-3.09h.79a3.61,3.61,0,0,0,.5,2.68c.73,1.2,1.7,1.49,2.56,1s1.14-1.46,0-3.27l-.91-1.51,3.78-1.78,2.34,3.88-.65.39-2-3.24-2.4,1.12.55.91C358.88,366.41,358.53,367.73,357.27,368.49Z" style="fill:#fff"></path><path d="M361.54,375.48a2.58,2.58,0,0,1-3.64-1.1c-1.14-1.89-.45-3.7,1.79-5.06,2.41-1.45,4.46-.89,5.62,1a3.84,3.84,0,0,1,.64,1.92l-.77.06a2.9,2.9,0,0,0-.5-1.58c-.92-1.53-2.5-1.92-4.42-.76a6.21,6.21,0,0,0-.56.38,2.63,2.63,0,0,1,2.52,1.44A2.5,2.5,0,0,1,361.54,375.48Zm-.46-.7a1.82,1.82,0,0,0,.46-2.71,1.82,1.82,0,1,0-3,1.9A1.81,1.81,0,0,0,361.08,374.78Z" style="fill:#fff"></path><path d="M367.32,385.24c-1.18.72-2.61.41-3.65-1.31a4.27,4.27,0,0,1-.63-3.1h.79a3.63,3.63,0,0,0,.51,2.7c.71,1.18,1.65,1.49,2.53,1s1.05-1.45.25-2.77l-.3-.5.53-.33,3.65.48-2.19-3.63.65-.39,2.76,4.56-.52.31-3.74-.48C368.8,383.31,368.46,384.56,367.32,385.24Z" style="fill:#fff"></path><path d="M371.7,392.31a2.58,2.58,0,0,1-3.64-1.11c-1.14-1.88-.45-3.7,1.79-5.05,2.41-1.46,4.47-.9,5.63,1a3.86,3.86,0,0,1,.63,1.91l-.76.06a3,3,0,0,0-.5-1.58c-.93-1.53-2.5-1.92-4.43-.75-.16.09-.36.23-.56.37a2.68,2.68,0,0,1,2.53,1.44A2.51,2.51,0,0,1,371.7,392.31Zm-.45-.71a1.82,1.82,0,0,0,.45-2.71,1.83,1.83,0,1,0-3,1.91A1.82,1.82,0,0,0,371.25,391.6Z" style="fill:#fff"></path><path d="M380.62,395.83l-.51.31-8.38,1-.47-.79,8.21-1-2.21-3.65-1.32.8-.44-.72,2-1.19Z" style="fill:#fff"></path><path d="M386.75,406l-.51.31-8.38,1-.47-.79,8.21-1-2.21-3.65-1.33.81-.43-.72,2-1.2Z" style="fill:#fff"></path><path d="M385.85,416.05c-1.25.76-2.68.16-3.7-1.53s-.87-3.21.38-4a2.08,2.08,0,0,1,2.58.32,1.86,1.86,0,0,1,.88-2.06c1.16-.7,2.47-.15,3.38,1.35s.79,2.94-.36,3.64a1.9,1.9,0,0,1-2.25-.19A2.1,2.1,0,0,1,385.85,416.05Zm-.44-.76c.87-.53,1-1.61.21-2.86s-1.76-1.67-2.63-1.14-1,1.6-.22,2.86S384.53,415.82,385.41,415.29Zm.78-3.21c.67,1.1,1.57,1.46,2.34,1s.86-1.48.22-2.55-1.55-1.45-2.34-1S385.53,411,386.19,412.08Z" style="fill:#fff"></path><path d="M391.65,422c-2.41,1.46-4.47.9-5.63-1a3.92,3.92,0,0,1-.63-1.92l.76-.06a3,3,0,0,0,.5,1.58c.93,1.53,2.5,1.92,4.43.76.16-.1.36-.23.56-.38a2.67,2.67,0,0,1-2.53-1.44,2.5,2.5,0,0,1,.69-3.67,2.57,2.57,0,0,1,3.64,1.1C394.58,418.79,393.89,420.6,391.65,422Zm.8-1.85a1.93,1.93,0,0,0,.39-2.8,1.81,1.81,0,1,0-3,1.91A1.91,1.91,0,0,0,392.45,420.1Z" style="fill:#fff"></path><path d="M399.48,427l-7.09,4.29-.44-.73,6.44-3.9-1-1.67.65-.39Z" style="fill:#fff"></path><path d="M397.45,438.23l-.65.4-3-5,.52-.31,4.67,1.2a2.74,2.74,0,0,0,2.33-.11c.82-.49,1-1.38.32-2.46a2.81,2.81,0,0,0-2-1.46l.13-.78a3.71,3.71,0,0,1,2.54,1.9c.87,1.44.69,2.79-.5,3.51a3.4,3.4,0,0,1-2.92.17l-3.83-1Z" style="fill:#fff"></path><path d="M402.68,443.76c-1.19.72-2.62.41-3.65-1.31a4.27,4.27,0,0,1-.63-3.1h.79a3.63,3.63,0,0,0,.51,2.7c.71,1.17,1.65,1.49,2.53,1s1-1.45.25-2.77l-.31-.51.54-.32,3.65.48-2.19-3.63.65-.39,2.75,4.56-.51.31-3.74-.48C404.16,441.83,403.82,443.07,402.68,443.76Z" style="fill:#fff"></path><rect x="376.25" y="389.75" width="3.6" height="66.41" transform="matrix(0.86, -0.52, 0.52, 0.86, -164.25, 256.48)" style="fill:#fff"></rect><rect x="378.46" y="423.48" width="3.6" height="34.06" transform="translate(-173.02 260.14) rotate(-31.14)" style="fill:#fff"></rect><rect x="348.68" y="321.66" width="27.86" height="20.82" rx="4.96" transform="translate(459.32 -150.01) rotate(58.86)" style="fill:#e0e0e0"></rect><path d="M351.43,322.54l1.14-.69L360,334.13a3,3,0,1,0,5.14-3.1l-7.42-12.28,1.14-.69,7.42,12.28a4.33,4.33,0,0,1-7.42,4.48Z" style="fill:#ebebeb"></path><rect x="366.34" y="335.01" width="1.34" height="9.85" transform="matrix(0.86, -0.52, 0.52, 0.86, -122.82, 238.33)" style="fill:#ebebeb"></rect><rect x="360.74" y="337.9" width="71.66" height="6.15" transform="translate(483.36 -174.77) rotate(58.86)" style="fill:#fff"></rect><path d="M209.3,33.61c-.76,10.8,0,30.92-3.93,41s-9.18,20.48-19,25c-12.12,5.56-26.36,3.2-39.29,6.46-20.26,5.1-34.92,23.69-41.17,43.63s-5.56,41.3-4.81,62.18L204.5,226.22s.54-42,9.56-53.49,51.87-21.8,66-53.21c12.74-28.27,16.58-73.1,16.58-73.1Z" style="fill:#f5f5f5"></path><path d="M234.56,62l-1.34-2.47a3.69,3.69,0,0,1-.56,0l-1.9-.23-.28,2.24-.74-.09.87-7.07,2.64.33c1.8.22,2.77,1.27,2.59,2.78a2.21,2.21,0,0,1-1.89,2l1.42,2.63Zm.53-4.64c.14-1.13-.53-1.87-1.94-2l-1.88-.23-.43,3.54,1.87.23C234.13,59,235,58.48,235.09,57.37Z" style="fill:#e0e0e0"></path><path d="M242.1,62.29l-.08.64-5-.61.87-7.06,4.84.59-.08.65L238.57,56l-.31,2.52,3.65.45-.08.63-3.65-.45-.33,2.62Z" style="fill:#e0e0e0"></path><path d="M243.54,59.54a3.58,3.58,0,0,1,4.15-3.14,3.45,3.45,0,0,1,2.45,1.35l-.53.42a2.79,2.79,0,0,0-2-1.1,2.95,2.95,0,1,0-.73,5.85,2.78,2.78,0,0,0,2.2-.59l.41.54a3.48,3.48,0,0,1-2.72.71A3.58,3.58,0,0,1,243.54,59.54Z" style="fill:#e0e0e0"></path><path d="M256.06,64l-.08.65L251,64l.87-7.06,4.84.6-.08.64-4.1-.5-.31,2.51,3.65.45-.07.64-3.65-.45-.33,2.62Z" style="fill:#e0e0e0"></path><path d="M258.61,57.81l.74.1L258.48,65l-.75-.1Z" style="fill:#e0e0e0"></path><path d="M266.88,61.29c-.19,1.51-1.39,2.28-3.18,2.06l-1.9-.24-.27,2.23-.75-.09.87-7.06,2.64.33C266.09,58.74,267.07,59.78,266.88,61.29Zm-.75-.09c.14-1.13-.52-1.86-1.94-2l-1.87-.23-.44,3.53,1.88.23C265.17,62.87,266,62.31,266.13,61.2Z" style="fill:#e0e0e0"></path><path d="M269.85,59.86l-2.48-.31.08-.64,5.71.7-.08.65L270.6,60l-.79,6.42-.75-.1Z" style="fill:#e0e0e0"></path><path d="M258.68,79.25c0,.15-9.45-1-21.05-2.6s-21-3-21-3.12,9.44,1,21,2.6S258.69,79.11,258.68,79.25Z" style="fill:#e0e0e0"></path><path d="M257.54,87.67c0,.15-9.44-1-21-2.6s-21-3-21-3.12,9.44,1,21,2.6S257.56,87.53,257.54,87.67Z" style="fill:#e0e0e0"></path><path d="M253.69,96.26c0,.14-9.44-1-21-2.6s-21-3-21-3.13,9.43,1,21,2.61S253.71,96.12,253.69,96.26Z" style="fill:#e0e0e0"></path><path d="M246.68,104.92c0,.15-9.44-1-21.05-2.6s-21-3-21-3.12,9.44,1,21.05,2.6S246.7,104.78,246.68,104.92Z" style="fill:#e0e0e0"></path><path d="M235.51,113.57c0,.14-9.44-1-21-2.61s-21-3-21-3.12,9.44,1,21,2.61S235.53,113.42,235.51,113.57Z" style="fill:#e0e0e0"></path><path d="M277.51,82.06a52.46,52.46,0,0,1-10.26-1.67,26.6,26.6,0,0,1,5.18.58A26.06,26.06,0,0,1,277.51,82.06Z" style="fill:#e0e0e0"></path><path d="M277.15,89.57A26.6,26.6,0,0,1,272,89a26.06,26.06,0,0,1-5.08-1.09,24.85,24.85,0,0,1,5.17.58A26.51,26.51,0,0,1,277.15,89.57Z" style="fill:#e0e0e0"></path><path d="M274.6,100a26.78,26.78,0,0,1-5.18-.6,31.75,31.75,0,0,1-5.08-1.07c0-.18,2.34.09,5.17.55A26,26,0,0,1,274.6,100Z" style="fill:#e0e0e0"></path><path d="M270.92,108.75a26.78,26.78,0,0,1-5.18-.6,32.08,32.08,0,0,1-5.08-1.07c0-.18,2.34.09,5.17.55A25.79,25.79,0,0,1,270.92,108.75Z" style="fill:#e0e0e0"></path><path d="M263,117.1a26.71,26.71,0,0,1-5.18-.6,30.49,30.49,0,0,1-5.08-1.07c0-.18,2.34.09,5.16.56A26.47,26.47,0,0,1,263,117.1Z" style="fill:#e0e0e0"></path><path d="M226,124.13c0,.14-14.16-1.74-31.58-4.21s-31.54-4.58-31.52-4.72,14.16,1.74,31.59,4.21S226,124,226,124.13Z" style="fill:#e0e0e0"></path><path d="M218.66,133a6.07,6.07,0,0,1-.7-.06l-2-.26-7.3-1.07-24.06-3.7c-9.39-1.48-17.88-2.86-24-3.89l-7.27-1.25c-.86-.16-1.52-.28-2-.38a3.09,3.09,0,0,1-.68-.18,4.46,4.46,0,0,1,.7.08l2,.28,7.3,1.09,24.06,3.73,24,3.86,7.27,1.23,2,.36A2.8,2.8,0,0,1,218.66,133Z" style="fill:#e0e0e0"></path><path d="M205.46,141.06a11.74,11.74,0,0,1-2.6-.23c-1.69-.22-4.14-.56-7.17-1-6.05-.87-14.4-2.14-23.61-3.58s-17.56-2.79-23.59-3.79l-7.14-1.2-1.93-.36a3.05,3.05,0,0,1-.67-.16,2.89,2.89,0,0,1,.68.06l1.95.25,7.17,1,23.61,3.63,23.59,3.74Z" style="fill:#e0e0e0"></path><path d="M249.79,129a26.78,26.78,0,0,1-5.18-.6,32.08,32.08,0,0,1-5.08-1.07c0-.18,2.34.09,5.17.55A25.57,25.57,0,0,1,249.79,129Z" style="fill:#e0e0e0"></path><path d="M239.6,134.66a26.78,26.78,0,0,1-5.18-.6,32.08,32.08,0,0,1-5.08-1.07c0-.18,2.34.09,5.17.55A25.57,25.57,0,0,1,239.6,134.66Z" style="fill:#e0e0e0"></path><path d="M225.88,144.21a26.78,26.78,0,0,1-5.18-.6,30.79,30.79,0,0,1-5.08-1.07c0-.18,2.34.09,5.17.56A26,26,0,0,1,225.88,144.21Z" style="fill:#e0e0e0"></path><path d="M199.66,159.29c0,.15-17.51-2.43-39-5.74s-39-6.12-39-6.26,17.5,2.43,39,5.75S199.68,159.15,199.66,159.29Z" style="fill:#e0e0e0"></path><path d="M189.19,178.22c0,.14-5.76-.67-12.8-1.81s-12.74-2.18-12.72-2.32,5.76.67,12.8,1.81S189.21,178.07,189.19,178.22Z" style="fill:#e0e0e0"></path></g><g id="freepik--Icons--inject-202"><rect x="321.5" y="111.84" width="114.62" height="108.71" rx="6.79" transform="translate(-19.52 54.59) rotate(-8.04)" style="fill:#F1B3AE"></rect><path d="M400.11,179.71a4.46,4.46,0,0,1-.76.16l-2.19.36L389,181.48l-27.29,4-.22,0-.06-.22c-.41-1.42-.85-2.91-1.29-4.43-3.71-13-7-24.57-9.19-32.14l.18.11-7.28,1-1.94.24a4.35,4.35,0,0,1-.68,0,3.83,3.83,0,0,1,.66-.14l1.93-.32,7.26-1.12.14,0,0,.13,9.38,32.09,1.28,4.44-.28-.19L389,181.13l8.14-1.09,2.21-.27A4.84,4.84,0,0,1,400.11,179.71Z" style="fill:#ebebeb"></path><path d="M359.46,177.43l.19,0,.56-.11,2.19-.35,8.21-1.26,28.32-4.16-.22.24c.16-4.89.33-10.18.5-15.65.09-2.81.18-5.58.27-8.22l.29.27-33.41,4.71-9.89,1.34-2.67.34-.7.08h-.24a.81.81,0,0,1,.24-.06l.68-.12,2.66-.43,9.88-1.5,33.38-4.88.3,0v.31c-.08,2.64-.17,5.4-.26,8.22-.18,5.47-.36,10.76-.52,15.65V172l-.21,0-28.35,4-8.22,1.11-2.2.28-.57.06Z" style="fill:#ebebeb"></path><path d="M372.81,194.27c-.05,0-.1-.34-.35-.88a3.86,3.86,0,0,0-1.69-1.79,3.67,3.67,0,0,0-5.38,3.74,3.66,3.66,0,0,0,2.84,3,3.71,3.71,0,0,0,3.37-1,3.81,3.81,0,0,0,1.12-2.2c.09-.59,0-.94.09-.94a2,2,0,0,1,.12,1,3.88,3.88,0,0,1-1.07,2.44,4.06,4.06,0,0,1-3.73,1.18,4.1,4.1,0,0,1-1.1-7.66,4.07,4.07,0,0,1,3.91.08,3.88,3.88,0,0,1,1.71,2A2.08,2.08,0,0,1,372.81,194.27Z" style="fill:#ebebeb"></path><path d="M397.52,190.72s-.1-.34-.35-.88a3.83,3.83,0,0,0-1.7-1.79,3.65,3.65,0,1,0,.84,5.81,3.81,3.81,0,0,0,1.12-2.2c.09-.59,0-.94.09-.94a2,2,0,0,1,.11,1,3.82,3.82,0,0,1-1.06,2.44,4.06,4.06,0,0,1-3.73,1.18,4.1,4.1,0,0,1-1.1-7.66,4.07,4.07,0,0,1,3.91.08,3.88,3.88,0,0,1,1.71,2A2.08,2.08,0,0,1,397.52,190.72Z" style="fill:#ebebeb"></path><circle cx="397.08" cy="144.31" r="11.07" transform="translate(57.67 395.89) rotate(-56.52)" style="fill:#fafafa"></circle><path d="M402.44,139.36a10.72,10.72,0,0,1-1.17,2c-.78,1.18-1.88,2.78-3.12,4.54l-1.33,1.87-.14.2-.2-.13a35.43,35.43,0,0,1-4.48-3.19,36.39,36.39,0,0,1,4.75,2.77l-.34.06,1.32-1.88c1.24-1.76,2.39-3.33,3.24-4.46A10.14,10.14,0,0,1,402.44,139.36Z" style="fill:#F1B3AE"></path><rect x="334.61" y="240.23" width="92.86" height="88.07" rx="6.79" transform="translate(81.04 -84.52) rotate(14.15)" style="fill:#455a64"></rect><path d="M360.41,272.12l.7,19.1,35,8.83L406,284.37s-3.39-2.1-5.86-2.19l4.12-19.1a2.69,2.69,0,0,0-3.07-3.22l-3.77.63-19.75-5-2-1.71a2.64,2.64,0,0,0-4.3,1.38L366.75,274A15.35,15.35,0,0,0,360.41,272.12Z" style="fill:#fafafa"></path><path d="M370.15,284.44a13.94,13.94,0,0,0,6.34,6,21.51,21.51,0,0,0,8.58,2c1.61.06,3.4-.08,4.53-1.22s1.27-3,1.3-4.68a22.57,22.57,0,0,0-.52-6.36,7.65,7.65,0,0,0-3.73-5c-2.6-1.26-5.75-.37-8.26,1.05a21.63,21.63,0,0,0-8,7.89" style="fill:#e0e0e0"></path><rect x="359" y="291.19" width="1.91" height="16.7" transform="translate(84.16 -78.91) rotate(14.15)" style="fill:#263238"></rect><rect x="366.49" y="292.95" width="1.91" height="8.53" transform="translate(83.79 -80.8) rotate(14.15)" style="fill:#263238"></rect><rect x="385.06" y="297.63" width="1.91" height="8.53" transform="translate(85.5 -85.19) rotate(14.15)" style="fill:#263238"></rect><rect x="392.24" y="299.57" width="1.91" height="16.7" transform="translate(87.19 -86.77) rotate(14.15)" style="fill:#263238"></rect><path d="M371.08,282.78c-.14,0,1.28-6.13,3.17-13.61s3.52-13.52,3.66-13.48-1.27,6.12-3.16,13.61S371.22,282.81,371.08,282.78Z" style="fill:#263238"></path><path d="M390.87,287.77c-.14,0,1.27-6.13,3.16-13.61s3.53-13.52,3.67-13.49-1.28,6.13-3.17,13.61S391,287.8,390.87,287.77Z" style="fill:#263238"></path><path d="M400.1,282.18a5.41,5.41,0,0,1-1,0h-.52l-.63.07-.72.09-.79.21A7.3,7.3,0,0,0,393,284.7a9.09,9.09,0,0,0-2.21,4.7l0,.27-.25-.07-9.37-2.33-10.49-2.68-.22,0,0-.22a9.86,9.86,0,0,0-.09-4.82,10.45,10.45,0,0,0-1.61-3.4,14.16,14.16,0,0,0-2.3-2.4,3.82,3.82,0,0,1,.75.47,9.36,9.36,0,0,1,1.77,1.77,10.36,10.36,0,0,1,1.75,3.46,10.11,10.11,0,0,1,.18,5l-.17-.27,10.51,2.61,9.35,2.39-.29.2a9.36,9.36,0,0,1,2.39-4.92,7.56,7.56,0,0,1,3.68-2.12l.83-.18.74-.05.64-.05.54,0A4,4,0,0,1,400.1,282.18Z" style="fill:#263238"></path><path d="M370.28,284.39c0,.08-.71,0-1.79.24a8.43,8.43,0,0,0-6.36,5.13c-.42,1-.52,1.71-.61,1.69a3.68,3.68,0,0,1,.27-1.82,7.87,7.87,0,0,1,2.53-3.66,8,8,0,0,1,4.12-1.71A3.61,3.61,0,0,1,370.28,284.39Z" style="fill:#263238"></path><path d="M395.69,300.33c-.08,0,.09-.77.09-2a10.38,10.38,0,0,0-1.07-4.57,10.24,10.24,0,0,0-3-3.59c-1-.73-1.68-1-1.65-1.12a4.5,4.5,0,0,1,1.86.82,9.32,9.32,0,0,1,4.25,8.47A4.48,4.48,0,0,1,395.69,300.33Z" style="fill:#263238"></path></g><g id="freepik--Device--inject-202"><path d="M320.67,465.1l-125.83-.58A27.41,27.41,0,0,1,167.56,437l1.33-315.46a27.42,27.42,0,0,1,27.54-27.29l125.83.58a27.4,27.4,0,0,1,27.28,27.52L348.21,437.8A27.42,27.42,0,0,1,320.67,465.1Z" style="fill:#263238"></path><path d="M321,103.68l-24.4-.12a6.07,6.07,0,0,0-5.95,6.17l0,4.42a6.06,6.06,0,0,1-5.95,6.17l-47.55-.22a6.07,6.07,0,0,1-5.9-6.22l0-4.43a6.07,6.07,0,0,0-5.9-6.22l-8.58,0-21.35-.09a19.2,19.2,0,0,0-19.29,19.11l-1.3,307.91A19.2,19.2,0,0,0,194,449.4l125.58.58a19.19,19.19,0,0,0,19.28-19.11L340.15,123A19.19,19.19,0,0,0,321,103.68Z" style="fill:#fafafa"></path><path d="M192.44,136.41a.52.52,0,0,1-.36-.16l-1.91-2a.46.46,0,0,1-.14-.35.49.49,0,0,1,.15-.35l1.92-1.83a.49.49,0,0,1,.7,0,.5.5,0,0,1,0,.71l-1.56,1.48,1.57,1.64a.5.5,0,0,1,0,.71A.52.52,0,0,1,192.44,136.41Z" style="fill:#263238"></path><rect x="191.08" y="396.62" width="136.06" height="35.13" rx="16.12" style="fill:#F1B3AE"></rect><path d="M242.93,410.11h3.16a3.89,3.89,0,1,1,0,7.77h-3.16Zm3.12,7.06a3.18,3.18,0,1,0,0-6.35h-2.3v6.35Z" style="fill:#fafafa"></path><path d="M251.4,414a4.08,4.08,0,1,1,4.09,3.95A3.9,3.9,0,0,1,251.4,414Zm7.34,0a3.27,3.27,0,1,0-3.25,3.22A3.14,3.14,0,0,0,258.74,414Z" style="fill:#fafafa"></path><path d="M267.88,410.11v7.77h-.67l-5-6.3v6.3h-.83v-7.77h.68l5,6.3v-6.3Z" style="fill:#fafafa"></path><path d="M275.9,417.17v.71h-5.49v-7.77h5.32v.71h-4.5v2.76h4v.7h-4v2.89Z" style="fill:#fafafa"></path><path d="M207.41,291c0,1.41-1,2.27-2.71,2.27h-1.79v2.1h-.71v-6.65h2.5C206.39,288.71,207.41,289.56,207.41,291Zm-.7,0c0-1.07-.7-1.68-2-1.68h-1.77v3.33h1.77C206,292.64,206.71,292,206.71,291Z" style="fill:#263238"></path><path d="M213.4,290.36v5h-.65v-.91a2,2,0,0,1-1.8,1,1.94,1.94,0,0,1-2.11-2.15v-2.9h.68v2.83c0,1.07.55,1.61,1.5,1.61a1.63,1.63,0,0,0,1.7-1.82v-2.62Z" style="fill:#263238"></path><path d="M217.81,290.32V291h-.16a1.62,1.62,0,0,0-1.69,1.84v2.55h-.67v-5h.64v1A1.9,1.9,0,0,1,217.81,290.32Z" style="fill:#263238"></path><path d="M218.47,292.86a2.47,2.47,0,0,1,2.58-2.54,2.18,2.18,0,0,1,2,1l-.51.34a1.7,1.7,0,0,0-1.45-.74,2,2,0,0,0,0,3.9,1.69,1.69,0,0,0,1.45-.73l.51.34a2.22,2.22,0,0,1-2,1A2.48,2.48,0,0,1,218.47,292.86Z" style="fill:#263238"></path><path d="M228.86,292.46v2.9h-.68v-2.83a1.4,1.4,0,0,0-1.5-1.6,1.64,1.64,0,0,0-1.75,1.81v2.62h-.68v-7.05h.68v2.92a2.11,2.11,0,0,1,1.87-.91A1.92,1.92,0,0,1,228.86,292.46Z" style="fill:#263238"></path><path d="M234.47,292.26v3.1h-.65v-.78a1.88,1.88,0,0,1-1.72.83c-1.13,0-1.83-.59-1.83-1.46s.5-1.41,1.93-1.41h1.59v-.31c0-.85-.48-1.32-1.42-1.32a2.56,2.56,0,0,0-1.66.59l-.3-.5a3.14,3.14,0,0,1,2-.68A1.78,1.78,0,0,1,234.47,292.26Zm-.68,1.6V293h-1.57c-1,0-1.28.38-1.28.89s.46.95,1.26.95A1.62,1.62,0,0,0,233.79,293.86Z" style="fill:#263238"></path><path d="M235.61,294.79l.3-.53a3.06,3.06,0,0,0,1.78.56c.95,0,1.34-.33,1.34-.82,0-1.3-3.24-.28-3.24-2.25,0-.82.7-1.43,2-1.43a3.31,3.31,0,0,1,1.76.47l-.29.54a2.52,2.52,0,0,0-1.47-.43c-.91,0-1.31.35-1.31.83,0,1.35,3.24.33,3.24,2.25,0,.87-.76,1.43-2.06,1.43A3.36,3.36,0,0,1,235.61,294.79Z" style="fill:#263238"></path><path d="M245.3,293.07h-4.18a1.86,1.86,0,0,0,2,1.74,2,2,0,0,0,1.53-.66l.38.44a2.64,2.64,0,0,1-4.55-1.73,2.41,2.41,0,0,1,2.44-2.54,2.38,2.38,0,0,1,2.42,2.54C245.31,292.92,245.3,293,245.3,293.07Zm-4.18-.51h3.55a1.78,1.78,0,0,0-3.55,0Z" style="fill:#263238"></path><path d="M256.52,290.36l-1.89,5H254l-1.57-4.1-1.58,4.1h-.64l-1.88-5H249l1.56,4.25,1.61-4.25h.58l1.6,4.25,1.59-4.25Z" style="fill:#263238"></path><path d="M261.16,292.26v3.1h-.64v-.78a1.9,1.9,0,0,1-1.72.83c-1.13,0-1.83-.59-1.83-1.46s.5-1.41,1.93-1.41h1.59v-.31c0-.85-.48-1.32-1.42-1.32a2.56,2.56,0,0,0-1.66.59l-.3-.5a3.14,3.14,0,0,1,2-.68A1.78,1.78,0,0,1,261.16,292.26Zm-.67,1.6V293h-1.57c-1,0-1.28.38-1.28.89s.46.95,1.26.95A1.62,1.62,0,0,0,260.49,293.86Z" style="fill:#263238"></path><path d="M262.31,294.79l.3-.53a3.06,3.06,0,0,0,1.78.56c.95,0,1.34-.33,1.34-.82,0-1.3-3.24-.28-3.24-2.25,0-.82.7-1.43,2-1.43a3.35,3.35,0,0,1,1.77.47l-.29.54a2.53,2.53,0,0,0-1.48-.43c-.9,0-1.3.35-1.3.83,0,1.35,3.24.33,3.24,2.25,0,.87-.76,1.43-2.06,1.43A3.33,3.33,0,0,1,262.31,294.79Z" style="fill:#263238"></path><path d="M269.45,294.79l.3-.53a3.06,3.06,0,0,0,1.78.56c1,0,1.34-.33,1.34-.82,0-1.3-3.24-.28-3.24-2.25,0-.82.7-1.43,2-1.43a3.31,3.31,0,0,1,1.76.47l-.29.54a2.52,2.52,0,0,0-1.47-.43c-.91,0-1.31.35-1.31.83,0,1.35,3.25.33,3.25,2.25,0,.87-.77,1.43-2.07,1.43A3.33,3.33,0,0,1,269.45,294.79Z" style="fill:#263238"></path><path d="M279.3,290.36v5h-.65v-.91a2,2,0,0,1-1.8,1,1.94,1.94,0,0,1-2.11-2.15v-2.9h.68v2.83c0,1.07.55,1.61,1.5,1.61a1.63,1.63,0,0,0,1.7-1.82v-2.62Z" style="fill:#263238"></path><path d="M280.69,292.86a2.46,2.46,0,0,1,2.57-2.54,2.18,2.18,0,0,1,2,1l-.5.34a1.73,1.73,0,0,0-1.46-.74,2,2,0,0,0,0,3.9,1.72,1.72,0,0,0,1.46-.73l.5.34a2.22,2.22,0,0,1-2,1A2.47,2.47,0,0,1,280.69,292.86Z" style="fill:#263238"></path><path d="M286,292.86a2.47,2.47,0,0,1,2.58-2.54,2.18,2.18,0,0,1,2,1l-.51.34a1.7,1.7,0,0,0-1.45-.74,2,2,0,0,0,0,3.9,1.69,1.69,0,0,0,1.45-.73l.51.34a2.22,2.22,0,0,1-2,1A2.48,2.48,0,0,1,286,292.86Z" style="fill:#263238"></path><path d="M296.08,293.07H291.9a1.85,1.85,0,0,0,2,1.74,2,2,0,0,0,1.53-.66l.39.44a2.65,2.65,0,0,1-4.56-1.73,2.41,2.41,0,0,1,2.44-2.54,2.39,2.39,0,0,1,2.43,2.54C296.09,292.92,296.08,293,296.08,293.07Zm-4.18-.51h3.54a1.77,1.77,0,0,0-3.54,0Z" style="fill:#263238"></path><path d="M296.77,294.79l.31-.53a3,3,0,0,0,1.78.56c.95,0,1.34-.33,1.34-.82,0-1.3-3.25-.28-3.25-2.25,0-.82.71-1.43,2-1.43a3.35,3.35,0,0,1,1.77.47l-.29.54a2.56,2.56,0,0,0-1.48-.43c-.9,0-1.3.35-1.3.83,0,1.35,3.24.33,3.24,2.25,0,.87-.76,1.43-2.06,1.43A3.37,3.37,0,0,1,296.77,294.79Z" style="fill:#263238"></path><path d="M301.42,294.79l.31-.53a3,3,0,0,0,1.78.56c.95,0,1.34-.33,1.34-.82,0-1.3-3.25-.28-3.25-2.25,0-.82.71-1.43,2-1.43a3.35,3.35,0,0,1,1.77.47l-.29.54a2.56,2.56,0,0,0-1.48-.43c-.9,0-1.3.35-1.3.83,0,1.35,3.24.33,3.24,2.25,0,.87-.76,1.43-2.06,1.43A3.37,3.37,0,0,1,301.42,294.79Z" style="fill:#263238"></path><path d="M307.54,289.77v.59h1.54v.57h-1.52v4.43h-.68v-4.43H306v-.57h.89v-.62a1.37,1.37,0,0,1,1.51-1.48,1.59,1.59,0,0,1,1,.31l-.23.51a1.09,1.09,0,0,0-.74-.25C307.84,288.83,307.54,289.15,307.54,289.77Z" style="fill:#263238"></path><path d="M314.5,290.36v5h-.65v-.91a2,2,0,0,1-1.8,1,1.94,1.94,0,0,1-2.11-2.15v-2.9h.68v2.83c0,1.07.55,1.61,1.5,1.61a1.63,1.63,0,0,0,1.7-1.82v-2.62Z" style="fill:#263238"></path><path d="M316.39,288.31h.68v7.05h-.68Z" style="fill:#263238"></path><path d="M211.49,263.81h-4.23v-2h10.82v2h-4.23v10.75h-2.36Z" style="fill:#F1B3AE"></path><path d="M229.21,269v5.58h-2.27v-5.28c0-1.73-.86-2.57-2.31-2.57-1.62,0-2.72,1-2.72,2.93v4.92h-2.27V261.05h2.27V266a4.35,4.35,0,0,1,3.24-1.24C227.48,264.72,229.21,266.05,229.21,269Z" style="fill:#F1B3AE"></path><path d="M240.24,268.86v5.7H238.1v-1.19a3.45,3.45,0,0,1-3.06,1.31c-2.22,0-3.63-1.22-3.63-2.91s1.1-2.89,4.05-2.89H238v-.15c0-1.33-.8-2.11-2.42-2.11a4.8,4.8,0,0,0-3,1l-.89-1.65a6.81,6.81,0,0,1,4.11-1.21C238.62,264.72,240.24,266.05,240.24,268.86ZM238,271.51v-1.12h-2.35c-1.55,0-2,.58-2,1.29s.7,1.35,1.86,1.35A2.47,2.47,0,0,0,238,271.51Z" style="fill:#F1B3AE"></path><path d="M252.73,269v5.58h-2.28v-5.28c0-1.73-.85-2.57-2.31-2.57-1.62,0-2.71,1-2.71,2.93v4.92h-2.28v-9.73h2.17v1.26a4.24,4.24,0,0,1,3.35-1.37C251,264.72,252.73,266.05,252.73,269Z" style="fill:#F1B3AE"></path><path d="M259.59,270.39,257.9,272v2.57h-2.28V261.05h2.28v8.15l4.71-4.37h2.73l-4.06,4.08,4.44,5.65H263Z" style="fill:#F1B3AE"></path><path d="M281.32,264.83l-4.55,10.51c-.89,2.2-2.13,2.87-3.75,2.87a4,4,0,0,1-2.6-.89l.91-1.67a2.43,2.43,0,0,0,1.67.67c.8,0,1.28-.38,1.71-1.35l.17-.38-4.24-9.76H273l3.06,7.19,3.08-7.19Z" style="fill:#F1B3AE"></path><path d="M281.66,269.69a5.18,5.18,0,1,1,5.17,5A4.9,4.9,0,0,1,281.66,269.69Zm8.07,0a2.89,2.89,0,1,0-2.9,3A2.84,2.84,0,0,0,289.73,269.69Z" style="fill:#F1B3AE"></path><path d="M303.62,264.83v9.73h-2.17v-1.24a4,4,0,0,1-3.13,1.36c-2.5,0-4.19-1.36-4.19-4.29v-5.56h2.28v5.25c0,1.76.83,2.6,2.27,2.6s2.66-1,2.66-2.93v-4.92Z" style="fill:#F1B3AE"></path><path d="M306.18,273.26a1.41,1.41,0,0,1,1.47-1.4,1.41,1.41,0,1,1,0,2.82A1.42,1.42,0,0,1,306.18,273.26Zm.13-11.45H309l-.45,8.52h-1.81Z" style="fill:#F1B3AE"></path><circle cx="260.02" cy="216.56" r="26.18" style="fill:#F1B3AE"></circle><path d="M272.91,205.51c.33.27-4.56,6.85-10.92,14.69l-3.86,4.68-.53.64-.56-.58c-5-5.13-8.37-8.93-8.13-9.17s4.05,3.15,9.17,8.12L257,224l3.78-4.73C267.14,211.38,272.57,205.24,272.91,205.51Z" style="fill:#fff"></path><path d="M297.21,206c-.78-2.75-4.35-2.48-4.35-2.48l.09,1.91c2.07-.36,3.35,2.06,3.35,2.06Z" style="fill:#F1B3AE"></path><path d="M221.37,211.78c-.77-2.75-4.35-2.49-4.35-2.49l.1,1.92c2.07-.36,3.35,2.06,3.35,2.06Z" style="fill:#e0e0e0"></path><path d="M263.14,173.73c4.15,1.26,6.73-3.52,6.73-3.52l-2.52-1.44c-1.24,2.93-5.38,2.59-5.38,2.59Z" style="fill:#e0e0e0"></path><path d="M240.13,178.88c-1.93.21-2.16,2.63-2.16,2.63l1.29.15c0-1.42,1.77-2,1.77-2Z" style="fill:#F1B3AE"></path><path d="M319.67,196.6c.28-1.92-2-2.75-2-2.75l-.47,1.21c1.38.35,1.51,2.21,1.51,2.21Z" style="fill:#e0e0e0"></path><path d="M251.39,153.61c.28-1.92-2-2.75-2-2.75l-.47,1.22c1.38.35,1.51,2.2,1.51,2.2Z" style="fill:#F1B3AE"></path><path d="M203.71,184.58c-.34,3,3.64,3.74,3.64,3.74l.72-2c-2.39-.22-2.73-3-2.73-3Z" style="fill:#F1B3AE"></path><path d="M292.47,173.67c1.94.11,2.56-2.24,2.56-2.24l-1.25-.36c-.23,1.4-2.07,1.69-2.07,1.69Z" style="fill:#F1B3AE"></path><path d="M303.06,181.57a4.49,4.49,0,0,1-1.6.15,4.44,4.44,0,0,1-1.6-.15,8.08,8.08,0,0,1,3.2,0Z" style="fill:#e0e0e0"></path><path d="M304.76,177.22a8.82,8.82,0,0,1,0,3.24,8.28,8.28,0,0,1,0-3.24Z" style="fill:#e0e0e0"></path><path d="M306.56,181.46a4.49,4.49,0,0,1,1.6-.15,4.44,4.44,0,0,1,1.6.15,8.08,8.08,0,0,1-3.2,0Z" style="fill:#e0e0e0"></path><path d="M304.87,185.82a8.33,8.33,0,0,1,0-3.25,8.88,8.88,0,0,1,0,3.25Z" style="fill:#e0e0e0"></path><path d="M307.45,184c-.06.05-.37-.21-.69-.58s-.51-.73-.45-.78.38.2.69.58S307.52,183.89,307.45,184Z" style="fill:#e0e0e0"></path><path d="M307.3,179c.06.07-.15.38-.48.71s-.64.55-.7.49.15-.38.48-.71S307.24,179,307.3,179Z" style="fill:#e0e0e0"></path><path d="M303.64,180.27c-.06.07-.36-.09-.67-.35s-.51-.52-.46-.58.35.09.66.34S303.69,180.21,303.64,180.27Z" style="fill:#e0e0e0"></path><path d="M303.49,182.45c.07.05-.12.36-.42.69s-.59.54-.65.48.12-.37.42-.69S303.43,182.39,303.49,182.45Z" style="fill:#e0e0e0"></path><path d="M215.94,172.65a8.08,8.08,0,0,1-3.2,0,4.49,4.49,0,0,1,1.6-.15A4.44,4.44,0,0,1,215.94,172.65Z" style="fill:#F1B3AE"></path><path d="M217.64,168.3a8.33,8.33,0,0,1,0,3.25,8.33,8.33,0,0,1,0-3.25Z" style="fill:#F1B3AE"></path><path d="M219.45,172.55a8.08,8.08,0,0,1,3.2,0,8.08,8.08,0,0,1-3.2,0Z" style="fill:#F1B3AE"></path><path d="M217.75,176.9a8.28,8.28,0,0,1,0-3.24,8.28,8.28,0,0,1,0,3.24Z" style="fill:#F1B3AE"></path><path d="M220.34,175c-.07.06-.38-.2-.69-.58s-.52-.72-.45-.78.37.21.69.58S220.4,175,220.34,175Z" style="fill:#F1B3AE"></path><path d="M220.19,170.1c.06.06-.16.38-.48.71s-.64.54-.7.48.15-.37.48-.7S220.13,170,220.19,170.1Z" style="fill:#F1B3AE"></path><path d="M216.52,171.36c-.05.06-.35-.09-.66-.35s-.52-.52-.46-.59.35.09.66.35S216.58,171.29,216.52,171.36Z" style="fill:#F1B3AE"></path><path d="M216.38,173.53c.06.06-.13.37-.42.7s-.59.54-.66.48.13-.37.42-.69S216.31,173.47,216.38,173.53Z" style="fill:#F1B3AE"></path><path d="M326.62,131.05a49,49,0,0,1-7.07.26,48.75,48.75,0,0,1-7.06-.26,47.1,47.1,0,0,1,7.06-.26A47.29,47.29,0,0,1,326.62,131.05Z" style="fill:#263238"></path><path d="M326.62,134a47.29,47.29,0,0,1-7.07.26,47.1,47.1,0,0,1-7.06-.26,48.75,48.75,0,0,1,7.06-.26A49,49,0,0,1,326.62,134Z" style="fill:#263238"></path><path d="M326.62,136.93a47.29,47.29,0,0,1-7.07.26,47.1,47.1,0,0,1-7.06-.26,48.75,48.75,0,0,1,7.06-.26A49,49,0,0,1,326.62,136.93Z" style="fill:#263238"></path><rect x="244.12" y="337.26" width="32.93" height="41.57" transform="translate(518.37 718.11) rotate(-179.55)" style="fill:#ebebeb"></rect><polygon points="264.34 338.61 263.75 378.85 258.55 378.81 259.67 338.57 264.34 338.61" style="fill:#fafafa"></polygon><polygon points="225.38 338.3 244.27 338.45 277.2 338.71 244.24 343.04 243.96 378.7 225.07 378.55 225.38 338.3" style="fill:#e0e0e0"></polygon><polygon points="235.67 338.38 234.92 378.63 229.31 378.58 230.23 338.34 235.67 338.38" style="fill:#fafafa"></polygon><path d="M250.62,326.13c0,.26-.55.52-1.56.77a25.9,25.9,0,0,1-7.47.54c-.56,0-1.14-.1-1.75-.19a14.21,14.21,0,0,1-1.92-.41,5.83,5.83,0,0,1-1.19-.51,3.82,3.82,0,0,1-1.25-1.18,3.51,3.51,0,0,1-.54-1.81,6,6,0,0,1,.16-1.4,24.33,24.33,0,0,1,1.26-4.17,11.23,11.23,0,0,1,1.21-2.12,9,9,0,0,1,.81-1,6.19,6.19,0,0,1,1.1-.89,4.44,4.44,0,0,1,1.49-.6,3.94,3.94,0,0,1,1.71.05,5.56,5.56,0,0,1,2.25,1.24,18.48,18.48,0,0,1,4.33,5.31,13,13,0,0,1,1.45,4.33c.13,1.08,0,1.69-.24,1.74-.53.13-1.3-2-3.4-4.66a21.43,21.43,0,0,0-4.23-4,2.48,2.48,0,0,0-1-.49.36.36,0,0,0-.18,0,1.32,1.32,0,0,0-.28.15,3.27,3.27,0,0,0-.42.37c-.15.17-.32.38-.47.59a8.16,8.16,0,0,0-.79,1.44,28,28,0,0,0-1.13,3.53,2.5,2.5,0,0,0-.1.52v0h0l-.1,0c-.12,0-.15.06-.07,0l.12-.09a0,0,0,0,0,0,0,.36.36,0,0,0,.09.09,2.5,2.5,0,0,0,.47.24,13,13,0,0,0,1.47.44c.51.14,1,.25,1.51.35,1,.2,1.93.34,2.8.46,1.75.23,3.21.39,4.22.58S250.61,325.88,250.62,326.13Z" style="fill:#e0e0e0"></path><path d="M249.94,326.43c-.09-.52,2.37-1.29,6.21-2.42a52.82,52.82,0,0,0,6.48-2.32,6.57,6.57,0,0,0,1.41-.78c.15-.13.22-.24.2-.23s0,.15-.05.08a4,4,0,0,0-.23-.58l-.48-1a16,16,0,0,0-1-1.79,7.42,7.42,0,0,0-1.17-1.4,6.38,6.38,0,0,0-.66-.53,2.94,2.94,0,0,0-.6-.32,1.49,1.49,0,0,0-1-.09,3.18,3.18,0,0,0-1.16.67,25.28,25.28,0,0,0-4.5,4.89c-2.21,3.14-2.79,5.59-3.34,5.51-.24,0-.42-.7-.33-1.91a13.74,13.74,0,0,1,1.42-4.9,21.57,21.57,0,0,1,4.51-6.14,6.49,6.49,0,0,1,2.34-1.47,5,5,0,0,1,3.26,0,6.73,6.73,0,0,1,1.37.68,8.29,8.29,0,0,1,1.11.84,10.49,10.49,0,0,1,1.8,2.1,17.22,17.22,0,0,1,1.23,2.23l.48,1.06a5.92,5.92,0,0,1,.49,1.51,3.4,3.4,0,0,1-.37,2.18,4.08,4.08,0,0,1-1.22,1.35,9.19,9.19,0,0,1-2.25,1.12,33.94,33.94,0,0,1-7.21,1.73C252.56,327.06,250,326.91,249.94,326.43Z" style="fill:#ebebeb"></path><rect x="219.44" y="324.69" width="48.4" height="13.76" transform="translate(484.69 665.02) rotate(-179.55)" style="fill:#e0e0e0"></rect><rect x="237.24" y="324.81" width="43.75" height="13.76" transform="translate(515.63 665.38) rotate(-179.55)" style="fill:#ebebeb"></rect><polygon points="267.62 324.87 267.31 338.69 262.21 338.59 262.57 324.83 267.62 324.87" style="fill:#fafafa"></polygon><polygon points="231.37 324.66 230.87 338.36 225.26 338.31 225.56 324.54 231.37 324.66" style="fill:#fafafa"></polygon><rect x="279.72" y="354.46" width="18.66" height="23.55" transform="translate(575.24 734.72) rotate(-179.55)" style="fill:#ebebeb"></rect><polygon points="291.18 355.22 290.85 378.03 287.9 378.01 288.53 355.2 291.18 355.22" style="fill:#fafafa"></polygon><polygon points="269.1 355.05 279.81 355.13 298.47 355.28 279.79 357.74 279.63 377.94 268.93 377.86 269.1 355.05" style="fill:#e0e0e0"></polygon><polygon points="274.93 355.1 274.51 377.9 271.33 377.88 271.85 355.07 274.93 355.1" style="fill:#fafafa"></polygon><path d="M283.4,348.15c0,.35-1.22.77-3.36,1a12.2,12.2,0,0,1-3.91-.32,2.64,2.64,0,0,1-1.51-1,2.28,2.28,0,0,1-.35-1.15,3.91,3.91,0,0,1,.09-.86,14.09,14.09,0,0,1,.73-2.41,7.13,7.13,0,0,1,.71-1.25A4.43,4.43,0,0,1,277,341a2.62,2.62,0,0,1,2-.34,3.53,3.53,0,0,1,1.37.76,10.33,10.33,0,0,1,2.46,3.1c1,2,.86,3.49.53,3.54s-.87-1.09-2.08-2.54a12.62,12.62,0,0,0-2.39-2.21,1.22,1.22,0,0,0-.45-.23h0v0l-.07.05a2.17,2.17,0,0,0-.43.48,4,4,0,0,0-.42.77,15,15,0,0,0-.63,2l-.06.23-.16,0-.15,0c-.07,0-.08,0,0,0a.71.71,0,0,0,.18-.16l.06-.06h0v0a1,1,0,0,0,.22.12,17.44,17.44,0,0,0,3.21.75C282.09,347.55,283.4,347.78,283.4,348.15Z" style="fill:#e0e0e0"></path><path d="M283,348.33c-.07-.4,1.32-.93,3.46-1.64a35.18,35.18,0,0,0,3.6-1.37,3.33,3.33,0,0,0,.71-.41c.06-.05.06-.09,0,0a.6.6,0,0,0-.07.28l-.37-.78a9.58,9.58,0,0,0-.55-1,3.37,3.37,0,0,0-.6-.72,2,2,0,0,0-.59-.42.48.48,0,0,0-.31,0,1.23,1.23,0,0,0-.54.3,15.21,15.21,0,0,0-2.55,2.64c-1.29,1.69-1.71,3.05-2.12,3s-.66-1.66.38-4a12,12,0,0,1,2.56-3.61,4.07,4.07,0,0,1,1.44-.92,3.15,3.15,0,0,1,2.08,0,3.8,3.8,0,0,1,.86.41,5.82,5.82,0,0,1,.68.52,6.34,6.34,0,0,1,1.08,1.25,12.49,12.49,0,0,1,.72,1.31l.27.61a3.74,3.74,0,0,1,.31,1,2.28,2.28,0,0,1-.26,1.47,2.78,2.78,0,0,1-.79.88,5.44,5.44,0,0,1-1.36.67,18.23,18.23,0,0,1-4.17.92C284.53,348.88,283.08,348.7,283,348.33Z" style="fill:#e0e0e0"></path><rect x="265.74" y="347.33" width="27.43" height="7.8" transform="translate(556.15 704.64) rotate(-179.55)" style="fill:#e0e0e0"></rect><rect x="275.82" y="347.4" width="24.79" height="7.8" transform="translate(573.69 704.84) rotate(-179.55)" style="fill:#ebebeb"></rect><polygon points="293.04 347.44 292.87 355.27 289.97 355.21 290.18 347.42 293.04 347.44" style="fill:#fafafa"></polygon><polygon points="272.5 347.32 272.22 355.08 269.04 355.06 269.21 347.25 272.5 347.32" style="fill:#fafafa"></polygon></g></svg>